<?xml version="1.0" encoding="UTF-8"?>
<svg width="94px" height="37px" viewBox="0 0 259 100" version="1.1" xmlns="http://www.w3.org/2000/svg" xmlns:xlink="http://www.w3.org/1999/xlink">
    <!-- Generator: Sketch 50.2 (55047) - http://www.bohemiancoding.com/sketch -->
    <title>Ember Logo 1c White</title>
    <desc>Created with Sketch.</desc>
    <defs></defs>
    <g id="Page-1" stroke="none" stroke-width="1" fill="none" fill-rule="evenodd">
        <g id="Ember-Logos" transform="translate(-2157.000000, -365.000000)" fill="#FFFFFF">
            <g id="Ember-Logo-1c-White" transform="translate(2157.194516, 365.000000)">
                <path d="M253.776,68.576 C253.776,68.576 247.496,73.448 241.968,72.904 C236.44,72.36 238.176,60.008 238.176,60.008 C238.176,60.008 239.368,48.68 236.112,47.728 C232.864,46.784 228.856,50.68 228.856,50.68 C228.856,50.68 223.872,56.208 221.488,63.256 L220.832,63.472 C220.832,63.472 221.592,51.112 220.728,48.296 C220.08,46.888 214.12,47 213.144,49.488 C212.168,51.984 207.4,69.32 207.072,76.584 C207.072,76.584 197.752,84.496 189.632,85.792 C181.504,87.096 179.552,82 179.552,82 C179.552,82 201.656,75.824 200.896,58.16 C200.144,40.496 183.072,47.032 181.144,48.48 C179.272,49.888 169.296,55.904 166.384,72.568 C166.288,73.128 166.112,75.608 166.112,75.608 C166.112,75.608 157.552,81.344 152.784,82.864 C152.784,82.864 166.112,60.432 149.864,50.248 C145.290426,47.4949265 141.304331,50.0322481 138.935601,52.3577148 C137.484177,53.7826283 158.64,30.64 153.76,9.936 C151.44,0.08 146.512,-0.976 141.992,0.624 C135.128,3.328 132.528,7.336 132.528,7.336 C132.528,7.336 123.64,20.232 121.576,39.416 C119.52,58.592 116.488,81.784 116.488,81.784 C116.488,81.784 112.256,85.904 108.36,86.12 C104.456,86.328 106.192,74.52 106.192,74.52 C106.192,74.52 109.224,56.536 109.016,53.496 C108.792,50.464 108.576,48.84 105,47.76 C101.424,46.672 97.52,51.224 97.52,51.224 C97.52,51.224 87.232,66.824 86.368,69.208 L85.816,70.192 L85.28,69.536 C85.28,69.536 92.536,48.296 85.608,47.976 C78.672,47.648 74.12,55.56 74.12,55.56 C74.12,55.56 66.208,68.784 65.88,70.296 L65.344,69.648 C65.344,69.648 68.592,54.264 67.944,50.464 C67.288,46.672 63.72,47.432 63.72,47.432 C63.72,47.432 59.168,46.888 57.976,49.816 C56.784,52.744 52.448,72.136 51.904,78.312 C51.904,78.312 40.528,86.44 33.048,86.544 C25.576,86.656 26.336,81.808 26.336,81.808 C26.336,81.808 53.752,72.424 46.272,53.896 C42.912,49.128 39.016,47.632 33.488,47.736 C27.96,47.848 21.104,51.216 16.664,61.184 C14.536,65.936 13.768,70.456 13.328,73.864 C13.328,73.864 8.536,74.848 5.936,72.68 C3.328,70.512 1.992,72.68 1.992,72.68 C1.992,72.68 -2.472,78.376 1.968,80.104 C6.416,81.84 13.344,82.648 13.344,82.648 C13.984,85.68 15.832,90.84 21.248,94.944 C29.376,101.12 44.968,94.376 44.968,94.376 L51.36,90.792 C51.36,90.792 51.576,96.656 56.24,97.512 C60.896,98.368 62.848,97.496 70.976,77.776 C75.744,67.696 76.072,68.24 76.072,68.24 C76.608,68.128 72.928,87.416 74.336,92.616 C75.744,97.824 81.92,97.28 81.92,97.28 C81.92,97.28 85.28,97.928 87.992,88.392 C90.696,78.856 95.904,68.344 95.904,68.344 C96.544,68.344 94.272,88.064 97.736,94.352 C101.208,100.64 110.2,96.464 110.2,96.464 C110.2,96.464 116.488,93.296 117.464,92.32 C117.464,92.32 124.92,98.672 135.44,97.52 C158.96,92.888 167.328,86.632 167.328,86.632 C167.328,86.632 171.368,96.872 183.888,97.824 C198.184,98.904 205.992,89.912 205.992,89.912 C205.992,89.912 205.88,95.76 210.864,97.824 C215.856,99.88 219.208,88.304 219.208,88.304 L227.552,65.312 C228.312,65.312 228.744,80.264 236.984,82.648 C245.216,85.032 255.944,77.064 255.944,77.064 C255.944,77.064 258.544,75.632 258.112,71.296 C257.672,66.96 253.776,68.576 253.776,68.576 Z M36.736,57.728 C39.656,60.544 38.576,66.608 33.048,70.4 C27.528,74.2 25.032,73.44 25.032,73.44 C25.36,60.544 33.816,54.904 36.736,57.728 Z M144.552,13.192 C146.392,22.944 128.408,51.984 128.408,51.984 C128.624,45.48 135.016,23.488 135.016,23.488 C135.016,23.488 142.704,3.44 144.552,13.192 Z M126.776,87.2 C126.776,87.2 125.368,82.432 129.376,69.104 C133.392,55.776 142.816,60.976 142.816,60.976 C142.816,60.976 149.32,65.96 144.224,79.288 C139.136,92.616 126.776,87.2 126.776,87.2 Z M181.608,61.088 C186.048,52.96 189.52,57.4 189.52,57.4 C189.52,57.4 193.312,61.52 188.976,67.696 C184.64,73.872 178.36,73.44 178.36,73.44 C178.36,73.44 177.168,69.208 181.608,61.088 Z" id="Fill-7"></path>
                <path d="M225.833147,93.9774636 L225.833147,92.4222636 L226.819547,92.4222636 C226.956347,92.4222636 227.093147,92.4366636 227.237147,92.4510636 C227.381147,92.4726636 227.517947,92.5086636 227.633147,92.5590636 C227.755547,92.6094636 227.849147,92.6814636 227.921147,92.7750636 C228.000347,92.8686636 228.036347,92.9982636 228.036347,93.1566636 C228.036347,93.5166636 227.928347,93.7470636 227.712347,93.8406636 C227.496347,93.9342636 227.215547,93.9774636 226.877147,93.9774636 L225.833147,93.9774636 Z M224.659547,91.5078636 L224.659547,97.4262636 L225.833147,97.4262636 L225.833147,94.8990636 L226.567547,94.8990636 L228.007547,97.4262636 L229.238747,97.4262636 L227.654747,94.8414636 C227.870747,94.8198636 228.072347,94.7766636 228.266747,94.7118636 C228.453947,94.6470636 228.619547,94.5534636 228.756347,94.4310636 C228.900347,94.3086636 229.008347,94.1502636 229.087547,93.9558636 C229.173947,93.7614636 229.209947,93.5310636 229.209947,93.2574636 C229.209947,92.6166636 229.008347,92.1630636 228.612347,91.9038636 C228.209147,91.6374636 227.633147,91.5078636 226.891547,91.5078636 L224.659547,91.5078636 Z M222.780347,94.4742636 C222.780347,93.8694636 222.881147,93.3150636 223.089947,92.8110636 C223.298747,92.3070636 223.579547,91.8750636 223.939547,91.5078636 C224.292347,91.1406636 224.717147,90.8526636 225.199547,90.6438636 C225.689147,90.4350636 226.207547,90.3342636 226.761947,90.3342636 C227.309147,90.3342636 227.827547,90.4350636 228.309947,90.6438636 C228.799547,90.8526636 229.217147,91.1406636 229.577147,91.5078636 C229.937147,91.8750636 230.217947,92.3070636 230.433947,92.8110636 C230.642747,93.3150636 230.750747,93.8694636 230.750747,94.4742636 C230.750747,95.0790636 230.642747,95.6334636 230.433947,96.1446636 C230.217947,96.6486636 229.937147,97.0950636 229.577147,97.4622636 C229.217147,97.8366636 228.799547,98.1246636 228.309947,98.3334636 C227.827547,98.5422636 227.309147,98.6430636 226.761947,98.6430636 C226.207547,98.6430636 225.689147,98.5422636 225.199547,98.3334636 C224.717147,98.1246636 224.292347,97.8366636 223.939547,97.4622636 C223.579547,97.0950636 223.298747,96.6486636 223.089947,96.1446636 C222.881147,95.6334636 222.780347,95.0790636 222.780347,94.4742636 Z M221.333147,94.4742636 C221.333147,95.2878636 221.484347,96.0150636 221.779547,96.6630636 C222.081947,97.3182636 222.477947,97.8726636 222.974747,98.3334636 C223.478747,98.7942636 224.054747,99.1470636 224.709947,99.3918636 C225.365147,99.6366636 226.049147,99.7590636 226.761947,99.7590636 C227.481947,99.7590636 228.165947,99.6366636 228.821147,99.3918636 C229.476347,99.1470636 230.052347,98.7942636 230.556347,98.3334636 C231.053147,97.8726636 231.449147,97.3182636 231.751547,96.6630636 C232.046747,96.0150636 232.190747,95.2878636 232.190747,94.4742636 C232.190747,93.6750636 232.046747,92.9478636 231.751547,92.2998636 C231.449147,91.6446636 231.053147,91.0902636 230.556347,90.6366636 C230.052347,90.1758636 229.476347,89.8230636 228.821147,89.5782636 C228.165947,89.3262636 227.481947,89.2038636 226.761947,89.2038636 C226.049147,89.2038636 225.365147,89.3262636 224.709947,89.5782636 C224.054747,89.8230636 223.478747,90.1758636 222.974747,90.6366636 C222.477947,91.0902636 222.081947,91.6446636 221.779547,92.2998636 C221.484347,92.9478636 221.333147,93.6750636 221.333147,94.4742636 Z" id="Fill-11"></path>
            </g>
        </g>
    </g>
</svg>