<?xml version="1.0" encoding="UTF-8" standalone="no"?>
<svg
   xmlns:dc="http://purl.org/dc/elements/1.1/"
   xmlns:cc="http://creativecommons.org/ns#"
   xmlns:rdf="http://www.w3.org/1999/02/22-rdf-syntax-ns#"
   xmlns:svg="http://www.w3.org/2000/svg"
   xmlns="http://www.w3.org/2000/svg"
   viewBox="0 0 613.33331 160"
   height="60"
   width="100"
   xml:space="preserve"
   version="1.1"><metadata
     id="metadata8"><rdf:RDF><cc:Work
         rdf:about=""><dc:format>image/svg+xml</dc:format><dc:type
           rdf:resource="http://purl.org/dc/dcmitype/StillImage" /></cc:Work></rdf:RDF></metadata><defs
     id="defs6"><clipPath
       id="clipPath20"
       clipPathUnits="userSpaceOnUse"><path
         style="clip-rule:evenodd"
         id="path18"
         d="m 568.809,1050.45 c -20.801,0 -41.598,-1.1 -61.301,-5.48 V 841.367 C 479.047,852.313 446.207,857.785 402.422,857.785 246.98,857.785 120,751.605 120,580.84 120,405.695 236.031,309.363 406.801,309.363 c 84.285,0 170.765,22.989 224.402,51.45 v 684.157 c -20.801,4.38 -42.691,5.48 -62.394,5.48 z m -164.2,-632.716 c -94.14,0 -158.722,63.493 -158.722,165.293 0,100.707 68.961,165.293 160.914,165.293 37.215,0 71.152,-4.379 100.707,-22.988 V 434.156 c -32.84,-12.043 -66.774,-17.515 -102.899,-16.422 z m 611.911,442.243 c -111.653,0 -202.512,-43.789 -248.485,-82.102 v -452.09 c 20.797,-4.379 41.598,-5.472 61.301,-5.472 20.797,0 42.691,1.093 62.394,5.472 v 391.887 c 24.083,14.23 66.774,28.461 114.94,28.461 79.91,0 125.88,-36.125 125.88,-131.36 V 325.785 c 21.9,-4.379 41.6,-5.472 62.4,-5.472 19.7,0 41.6,1.093 62.39,5.472 v 318.543 c 0,119.317 -73.34,215.649 -240.82,215.649 z M 1571.51,308.27 c 142.3,0 225.5,65.679 225.5,174.05 0,102.899 -82.1,141.211 -194.85,158.723 -88.67,14.23 -111.66,30.652 -111.66,64.586 0,32.84 28.46,53.637 94.14,53.637 62.4,0 116.04,-18.61 152.16,-39.407 25.18,19.704 41.6,50.356 47.07,88.668 -33.93,24.082 -100.71,50.352 -194.85,50.352 -131.36,0 -217.83,-65.676 -217.83,-162.008 0,-109.465 87.57,-143.398 179.52,-157.629 93.05,-14.23 122.6,-33.933 122.6,-68.965 0,-35.027 -26.27,-62.394 -99.61,-62.394 -82.1,0 -128.07,28.461 -159.82,51.449 -26.27,-16.418 -47.07,-45.977 -56.92,-85.383 29.55,-25.176 98.52,-65.679 214.55,-65.679 z m 398.45,614.101 c 42.69,0 78.82,35.027 78.82,78.809 0,43.79 -36.13,78.82 -78.82,78.82 -44.88,0 -81,-35.03 -81,-78.82 0,-43.782 36.12,-78.809 81,-78.809 z m 0,-602.058 c 20.8,0 41.6,1.093 61.3,5.472 v 517.77 c -19.7,4.379 -41.59,5.472 -61.3,5.472 -20.8,0 -41.59,-1.093 -62.39,-5.472 v -517.77 c 20.8,-4.379 42.69,-5.472 62.39,-5.472 z m 791.43,539.664 c -70.05,0 -133.54,-27.368 -176.23,-60.207 -38.32,37.218 -95.24,60.207 -169.68,60.207 -108.36,0 -202.5,-45.977 -244.1,-82.102 v -452.09 c 20.8,-4.379 41.6,-5.472 61.3,-5.472 20.8,0 42.69,1.093 62.39,5.472 v 391.887 c 27.37,16.418 65.68,28.461 106.18,28.461 84.29,0 116.04,-53.641 116.04,-128.074 V 325.785 c 20.8,-4.379 41.6,-5.472 63.49,-5.472 19.7,0 41.6,1.093 61.3,5.472 v 329.488 c 0,16.422 -2.19,32.84 -5.47,48.168 25.17,20.797 60.2,42.692 110.55,42.692 84.29,0 117.13,-53.641 117.13,-128.074 V 325.785 c 19.71,-4.379 40.51,-5.472 62.4,-5.472 19.7,0 41.6,1.093 61.3,5.472 v 329.488 c 0,112.75 -76.63,204.704 -226.6,204.704 z m 591.12,-1.098 c -98.52,0 -180.62,-38.313 -230.97,-79.91 V 123.273 c 21.89,-4.378 41.59,-5.472 62.39,-5.472 20.8,0 41.6,1.094 61.3,5.472 v 201.418 c 32.84,-10.949 67.87,-15.328 111.66,-15.328 144.49,0 274.75,101.805 274.75,276.95 0,179.523 -120.41,272.566 -279.13,272.566 z m -4.38,-438.953 c -40.5,0 -73.34,6.566 -102.9,20.797 v 279.136 c 31.75,17.516 65.68,25.176 101.81,25.176 95.23,0 159.82,-60.203 159.82,-159.816 0,-102.899 -64.59,-165.293 -158.73,-165.293 z m 458.66,-99.613 c 20.8,0 42.69,1.093 62.39,5.472 v 718.095 c -20.79,4.37 -42.69,5.47 -63.48,5.47 -20.81,0 -41.6,-1.1 -61.31,-5.47 V 325.785 c 21.9,-4.379 42.7,-5.472 62.4,-5.472 z M 4480,624.625 c 0,139.02 -98.52,234.254 -237.54,234.254 -147.78,0 -260.53,-116.031 -260.53,-276.945 0,-169.672 111.66,-272.571 267.1,-272.571 103.99,0 171.86,38.313 215.65,73.344 -4.38,31.746 -26.28,66.773 -53.64,84.289 -33.94,-24.082 -77.72,-53.641 -153.25,-53.641 -86.48,0 -139.02,52.543 -148.88,137.926 h 366.71 c 3.29,28.461 4.38,45.977 4.38,73.344 z m -369.99,8.758 c 8.76,71.152 55.83,124.789 132.45,124.789 84.29,-1.094 116.03,-63.488 116.03,-124.789 z" /></clipPath><clipPath
       id="clipPath26"
       clipPathUnits="userSpaceOnUse"><path
         id="path24"
         d="M 0,0 H 4600 V 1200 H 0 Z" /></clipPath></defs><g
     transform="matrix(1.3333333,0,0,-1.3333333,0,160)"
     id="g10"><g
       transform="scale(0.1)"
       id="g12"><g
         id="g14"><g
           clip-path="url(#clipPath20)"
           id="g16"><g
             clip-path="url(#clipPath26)"
             id="g22"><path
               id="path28"
               style="fill:#000000;fill-opacity:1;fill-rule:nonzero;stroke:none"
               d="m 20,17.8008 h 4560 v 1162.2 H 20 Z" /></g></g></g></g></g></svg>
