<?xml version="1.0" encoding="UTF-8" standalone="no"?>
<svg
   xmlns:dc="http://purl.org/dc/elements/1.1/"
   xmlns:cc="http://creativecommons.org/ns#"
   xmlns:rdf="http://www.w3.org/1999/02/22-rdf-syntax-ns#"
   xmlns:svg="http://www.w3.org/2000/svg"
   xmlns="http://www.w3.org/2000/svg"
   version="1.1"
   id="svg4169"
   viewBox="0 0 1000 1000">
  <defs
     id="defs4171" />
  <metadata
     id="metadata4174">
    <rdf:RDF>
      <cc:Work
         rdf:about="">
        <dc:format>image/svg+xml</dc:format>
        <dc:type
           rdf:resource="http://purl.org/dc/dcmitype/StillImage" />
        <dc:title></dc:title>
      </cc:Work>
    </rdf:RDF>
  </metadata>
  <g
     id="layer1">
    <path
       id="path4717"
       d="m 392,643 q 0,22 -7,45 -7,23 -24,43 -17,20 -40,19 -23,-1 -41,-19 -18,-18 -24,-43 -6,-25 -7,-45 -1,-20 7,-46 8,-26 24,-43 16,-17 41,-19 25,-2 40,19 15,21 24,43 9,22 7,46 z m 357,0 q 0,22 -7,45 -7,23 -24,43 -17,20 -40,19 -23,-1 -41,-19 -18,-18 -24,-43 -6,-25 -7,-45 -1,-20 7,-46 8,-26 24,-43 16,-17 41,-19 25,-2 40,19 15,21 24,43 9,22 7,46 z m 90,0 q 0,-67 -39,-114 -39,-47 -104,-47 -23,0 -109,12 -40,6 -88,6 -48,0 -87,-6 -85,-12 -109,-12 -66,0 -104,47 -38,47 -39,114 0,49 18,85 18,36 45,58 27,22 68,33 41,11 78,17 37,6 83,4 l 94,0 q 46,0 83,-4 37,-4 78,-17 41,-13 69,-33 28,-20 45,-58 17,-38 18,-85 z m 125,-99 q 0,116 -34,185 -22,43 -59,74 -37,31 -79,48 -42,17 -95,27 -53,10 -96,12 -43,2 -93,3 -43,0 -79,-2 -36,-2 -82,-7 -46,-5 -85,-17 Q 223,855 185,838 147,821 118,793 89,765 70,729 35,660 35,544 35,412 111,323 96,278 96,228 q 0,-64 28,-121 61,0 106,22 45,22 106,69 82,-20 172,-20 83,0 157,18 58,-46 104,-67 46,-21 105,-22 29,57 29,121 0,49 -15,94 76,89 76,222 z" />
  </g>
</svg>
