<svg viewBox="0 0 423 125" fill="none" xmlns="http://www.w3.org/2000/svg">
<path fill-rule="evenodd" clip-rule="evenodd" d="M219.889 72.3204C219.657 73.0682 219.281 73.5933 218.762 73.8882L218.612 73.9641C218.05 74.198 217.449 74.1644 216.741 73.9877C214.455 73.4129 203.857 72.1985 208.096 59.5804L210.61 52.0949L210.04 50.6404L207.285 43.9636L190.025 3.08578C189.645 2.23719 189.783 1.4645 190.122 0.938175C190.473 0.389454 191.093 0.111984 191.968 0.0958091H201.789C202.462 0.0958091 203.034 0.281204 203.473 0.62711C203.913 0.97426 204.235 1.50432 204.508 2.15756L217.178 32.3708L226.266 2.24217C226.461 1.52049 226.806 0.973014 227.27 0.609689C227.725 0.253829 228.307 0.0771437 228.986 0.0771437H239.473C240.363 0.0771437 240.995 0.334707 241.367 0.814994C241.739 1.31394 241.789 2.03562 241.513 2.96384L227.41 48.0834L221.97 65.5902L219.889 72.3204ZM178.534 31.7051H189.257C190.914 31.7051 191.889 32.7814 191.304 34.445C188.282 44.6218 178.729 51.6681 167.323 51.6681C152.506 51.6681 141.492 40.4137 141.492 25.8334C141.492 11.2531 152.506 -5.37064e-07 167.323 -5.37064e-07C178.729 -5.37064e-07 188.282 7.04503 191.304 17.2219C191.889 18.8855 190.914 19.963 189.257 19.963H178.534C177.266 19.963 176.389 19.3757 175.609 18.2994C173.855 15.8532 170.833 14.482 167.323 14.482C160.988 14.482 156.113 19.0821 156.113 25.8334C156.113 32.5861 160.988 37.1849 167.323 37.1849C170.833 37.1849 173.855 35.8149 175.609 33.467C176.389 32.2924 177.168 31.7051 178.534 31.7051ZM126.022 2.64531V5.19481C127.234 3.03725 130 -0.0261301 137.22 0.072167C137.744 0.0783884 138.165 0.278715 138.475 0.602224C138.93 1.07629 139.148 1.71709 139.148 2.54577V14.5056C139.148 15.3169 138.979 15.9254 138.626 16.331C138.289 16.7354 137.784 16.9394 137.129 16.9394C135.698 16.8884 134.335 17.0402 133.005 17.3948C131.692 17.7482 130.497 18.3579 129.454 19.1853C128.411 20.0302 127.573 21.165 126.964 22.5473C126.345 23.9509 126.031 25.6555 126.022 27.6837L125.953 40.4386C125.881 53.7597 115.762 51.7415 113.4 51.6047C112.594 51.5586 111.968 51.3857 111.532 50.9464C111.094 50.5072 110.875 49.8814 110.875 49.0713V2.64531C110.875 1.83529 111.094 1.20943 111.532 0.770201C111.969 0.330975 112.593 0.111983 113.4 0.111983H123.497C124.304 0.111983 124.928 0.330975 125.365 0.770201C125.803 1.20943 126.022 1.83405 126.022 2.64531ZM82.2745 0.0236415C85.8381 0.0398169 89.1091 0.689323 92.0901 1.97465C95.0687 3.25873 97.6443 5.06291 99.8482 7.37227C102.033 9.6978 103.734 12.4115 104.933 15.5334C106.131 18.6553 106.747 22.0695 106.763 25.7762C106.763 26.4108 106.747 27.0279 106.698 27.614C106.665 28.215 106.617 28.801 106.569 29.3858C106.472 30.166 106.18 30.7346 105.727 31.0929C105.273 31.4513 104.674 31.6292 103.945 31.6292H71.4884C72.1031 33.5479 72.9621 35.1082 74.095 36.3114C75.2292 37.4984 76.5579 38.3607 78.0466 38.9132C79.5538 39.4656 81.1565 39.7257 82.8583 39.7257C84.2342 39.7095 85.5617 39.498 86.826 39.06C88.0729 38.6208 89.1575 38.0347 90.0487 37.2869C90.5184 36.8974 90.9882 36.5876 91.4419 36.3599C91.9116 36.1335 92.4459 36.019 93.0607 36.019L102.39 35.9219C103.282 35.9381 103.929 36.1982 104.318 36.7021C104.69 37.206 104.706 37.8568 104.334 38.6531C103.055 41.4826 101.353 43.8554 99.2322 45.7579C97.1101 47.6765 94.6485 49.1062 91.8459 50.0829C89.0447 51.041 85.9843 51.53 82.6637 51.53C78.6143 51.5126 74.9701 50.8469 71.7313 49.5454C68.4763 48.2451 65.7061 46.441 63.4068 44.0993C61.0902 41.775 59.3251 39.0426 58.0943 35.9381C56.8635 32.8163 56.2474 29.4343 56.2313 25.7762C56.2474 22.1181 56.8796 18.7361 58.1426 15.6155C59.4057 12.5098 61.1868 9.77868 63.5035 7.45315C65.804 5.11268 68.5569 3.30726 71.7313 2.007C74.9056 0.706743 78.4197 0.0398169 82.2745 0.0236415ZM14.0932 5.33914C16.0826 3.66561 18.2913 2.36535 20.6266 1.47446C23.0585 0.548722 25.6304 0.0659462 28.2371 0.0659462C34.6887 0.0659462 40.9966 2.96135 45.2258 7.64103C49.4488 12.3145 52.0616 18.7697 52.0616 25.8944C52.0616 33.0191 49.4488 39.4731 45.2258 44.1465C40.9966 48.825 34.6887 51.7216 28.2371 51.7216C23.5121 51.7216 18.5541 50.2297 15.0996 46.9051L15.1095 62.7483C15.1182 76.0694 4.91835 74.05 2.55586 73.9143C1.75266 73.8683 1.12423 73.6929 0.68792 73.2549C0.251615 72.8169 0.0322249 72.1885 0.0322249 71.3798L1.49553e-06 2.71499C1.49553e-06 1.8888 0.224345 1.23804 0.674285 0.787619C1.12299 0.335951 1.76754 0.110739 2.59428 0.110739H11.4654C12.2922 0.110739 12.9367 0.335951 13.3854 0.787619C13.8353 1.23804 14.0498 1.88257 14.0597 2.71499L14.0932 5.33914ZM39.3109 25.7575C39.3109 19.474 34.2698 14.38 28.0512 14.38C21.8314 14.38 16.7903 19.474 16.7903 25.7575C16.7903 32.0423 21.8314 37.1363 28.0512 37.1363C34.2698 37.1363 39.3109 32.0423 39.3109 25.7575ZM75.3271 14.9324C73.4963 16.2003 72.2011 18.0705 71.44 20.5092H92.2513C91.7331 18.6714 90.956 17.192 89.9185 16.0871C88.8996 14.9971 87.701 14.2008 86.3562 13.713C85.0113 13.2253 83.6194 12.9814 82.1778 12.9976C79.4398 13.0138 77.1405 13.6483 75.3271 14.9324Z" transform="translate(180.759 40.0347)" fill="#3F3A40"/>
<path fill-rule="evenodd" clip-rule="evenodd" d="M151.489 27.5863C150.817 25.4006 148.82 23.9318 146.521 23.9318C145.836 23.9318 145.166 24.0655 144.529 24.3291C142.898 25.004 140.353 25.7938 137.173 25.9406C130.745 21.2943 115.157 10.0701 105.909 3.77281C105.909 3.77281 107.205 7.51559 108.994 14.508C108.994 14.508 94.3708 6.30367 84.6352 0C84.6352 0 88.2729 7.38001 88.5742 9.76966C88.5742 9.76966 76.9957 7.78411 60.0655 4.14048C60.0655 4.14048 72.6588 11.1359 75.7602 15.3478C75.7602 15.3478 60.6113 14.3281 42.769 13.3145C42.769 13.3145 51.8126 17.8651 56.2244 21.5403C56.2244 21.5403 40.0509 23.9051 27.7301 24.5038C27.7301 24.5038 36.8681 31.6089 40.5562 35.0497C40.5562 35.0497 25.1721 41.092 6.80004 51.7033C6.80004 51.7033 16.4812 52.1802 23.4612 54.3937C23.4612 54.3937 15.0423 61.7865 0 78.7375C0 78.7375 9.65961 78.3837 17.4533 77.3356C17.4533 77.3356 11.3502 86.7327 3.76133 103.613C3.76133 103.613 8.96679 100.337 14.0079 99.1507C14.0079 99.1507 14.5487 118.099 25.0338 121.135L25.0425 121.122C25.5561 121.283 26.0463 121.339 26.4719 121.339C26.984 121.339 27.5192 121.261 28.063 121.107C31.3902 120.166 33.9083 116.922 36.8238 113.166L36.8247 113.165C37.7787 111.936 38.7589 110.674 39.8009 109.442C40.9638 107.816 42.4812 106.118 44.3126 104.626C48.0187 101.606 53.1476 99.3202 59.3959 100.235C66.4307 100.821 70.7759 107.747 74.2695 113.316C76.9107 117.527 78.997 120.852 81.909 121.171C82.1135 121.193 82.3176 121.204 82.516 121.204C86.9668 121.204 88.5312 116.07 90.5118 109.569L90.5123 109.567C90.6438 109.134 90.7788 108.692 90.9171 108.241C90.9354 108.277 90.9538 108.312 90.9722 108.348C92.4381 103.09 95.2805 97.4211 98.7575 92.3065C103.481 85.3583 109.568 79.1492 115.412 76.2653L115.427 76.2941C118.6 74.4767 121.94 72.7605 125.232 71.0687L125.235 71.0671C135.44 65.8234 145.078 60.8705 149.913 53.3561C152.331 49.5975 153.53 44.9857 153.476 39.648C153.428 34.8604 152.369 30.4462 151.489 27.5863ZM109.505 84.1951C106.591 86.9246 103.743 90.3087 101.238 93.9931C97.1061 100.072 94.064 106.737 93.1668 112.272C96.0393 116.946 98.6208 119.243 101.032 119.282L101.108 119.282C103.325 119.282 104.787 117.81 105.454 114.906C105.952 112.738 106.059 109.76 106.182 106.311L106.182 106.307C106.406 100.022 106.697 91.9231 109.505 84.1951ZM41.4787 112.472L41.4442 112.389C42.4761 110.702 44.0759 108.688 46.2076 106.951C49.236 104.484 53.2207 102.667 58.0382 103.095C57.4985 104.536 56.877 106.131 56.2093 107.728C53.9321 113.175 51.2079 118.805 48.2693 119.264C48.0951 119.291 47.9174 119.305 47.7421 119.305C45.44 119.305 43.3911 117.07 41.4787 112.472ZM99.0109 23.2678L86.1576 15.1262L107.349 22.5911L99.0109 23.2678ZM63.67 26.9824L84.0274 32.1301L92.9047 29.2173L63.67 26.9824ZM99.9678 37.0698L104.312 33.8168L87.4996 36.6109L99.9678 37.0698ZM71.1602 37.0698L64.1972 41.6805L44.8999 39.8639L71.1602 37.0698ZM92.9047 48.5914L99.9679 44.686L73.7076 47.4805L92.9047 48.5914ZM73.4501 52.9268L68.527 60.9227L43.8885 66.879L73.4501 52.9268ZM42.6674 57.8496L23.5927 66.1474L47.0066 49.5517L42.6674 57.8496ZM32.2345 67.7999L31.4816 76.1011L20.5298 89.6751L32.2345 67.7999Z" transform="translate(2.66968 0.500061) rotate(0.999737)" fill="#3F3A40"/>
</svg>
