<?xml version="1.0" encoding="utf-8"?>
<!-- Generator: Adobe Illustrator 21.1.0, SVG Export Plug-In . SVG Version: 6.00 Build 0)  -->
<svg version="1.1" id="Layer_1" xmlns="http://www.w3.org/2000/svg" xmlns:xlink="http://www.w3.org/1999/xlink" x="0px" y="0px"
	 viewBox="0 0 622 540.9" style="enable-background:new 0 0 622 540.9;" xml:space="preserve">
<style type="text/css">
	.st0{fill:#F1705D;}
	.st1{fill:#F8F6F1;}
	.st2{fill:#FFFFFF;stroke:#000000;stroke-width:0.5;stroke-miterlimit:10;}
	.st3{fill:none;stroke:#000000;stroke-width:0.5;stroke-miterlimit:10;}
	.st4{fill:none;stroke:#000000;stroke-miterlimit:10;}
	.st5{font-family:'Arial-BoldMT';}
	.st6{font-size:17px;}
	.st7{font-family:'Arial-ItalicMT';}
	.st8{fill:#FFFFFF;}
	.st9{font-size:11px;}
	.st10{font-family:'Consolas';}
	.st11{font-size:12px;}
	.st12{fill:#3B6AA9;}
	.st13{fill:#C09A3F;}
	.st14{fill:#9B5436;}
	.st15{fill:#3095C3;}
</style>
<g id="Background">
	<rect class="st0" width="116.5" height="540.9"/>
	<rect x="116.5" class="st1" width="505.5" height="540.9"/>
</g>
<g id="Components">
	<rect x="278.9" y="19.9" class="st2" width="309.1" height="24.5"/>
	<rect x="124" y="19.9" class="st3" width="464" height="24.5"/>
	<g>
		<g>
			<line class="st3" x1="162" y1="44.4" x2="162" y2="63.9"/>
			<g>
				<polygon points="166.6,63.3 157.4,63.3 162,67.9 				"/>
			</g>
		</g>
	</g>
	<rect x="278.9" y="68.9" class="st2" width="309.1" height="60.5"/>
	<rect x="124" y="68.9" class="st3" width="464" height="60.5"/>
	<g>
		<g>
			<line class="st3" x1="162" y1="129.4" x2="162" y2="148.9"/>
			<g>
				<polygon points="166.6,148.3 157.4,148.3 162,152.9 				"/>
			</g>
		</g>
	</g>
	<rect x="278.9" y="153.4" class="st2" width="309.1" height="84.5"/>
	<rect x="124" y="153.4" class="st3" width="464" height="84.5"/>
	<g>
		<g>
			<line class="st3" x1="162" y1="237.9" x2="162" y2="318.9"/>
			<g>
				<polygon points="166.6,318.3 157.4,318.3 162,322.9 				"/>
			</g>
		</g>
	</g>
	<rect x="278.9" y="322.9" class="st2" width="309.1" height="84.5"/>
	<rect x="124" y="322.9" class="st3" width="464" height="84.5"/>
	<g>
		<g>
			<line class="st3" x1="162" y1="407.4" x2="162" y2="446.9"/>
			<g>
				<polygon points="166.6,446.3 157.4,446.3 162,450.9 				"/>
			</g>
		</g>
	</g>
	<g>
		<g>
			<line class="st3" x1="257.2" y1="237.9" x2="279.4" y2="259.2"/>
			<g>
				<polygon points="282.1,255.5 275.8,262.1 282.3,262 				"/>
			</g>
		</g>
	</g>
	<g>
		<g>
			<line class="st3" x1="252.4" y1="407.4" x2="292.7" y2="448.1"/>
			<g>
				<polygon points="295.5,444.4 289.1,450.8 295.5,450.9 				"/>
			</g>
		</g>
	</g>
	<g>
		<g>
			<line class="st3" x1="269.7" y1="407.4" x2="480.3" y2="446"/>
			<g>
				<polygon points="480.6,441.4 478.9,450.4 484.2,446.7 				"/>
			</g>
		</g>
	</g>
	<rect x="124" y="450.9" class="st3" width="154.9" height="71.8"/>
	<rect x="448" y="450.9" class="st3" width="154.9" height="71.8"/>
	<rect x="285.5" y="450.9" class="st3" width="154.9" height="71.8"/>
	<path class="st4" d="M371.5,265.9v28.5c0,5.8-20.7,10.5-46.3,10.5s-46.3-4.7-46.3-10.5v-28.5"/>
	<ellipse class="st4" cx="325.2" cy="265.9" rx="46.3" ry="10.5"/>
</g>
<g id="Display_text">
	<text transform="matrix(1 0 0 1 135 37.8959)" class="st5 st6">URL</text>
	<text transform="matrix(1 0 0 1 135 92.8959)" class="st5 st6">Router</text>
	<text transform="matrix(1 0 0 1 135 113.4959)" class="st7 st6">router.js</text>
	<text transform="matrix(1 0 0 1 135 177.3959)" class="st5 st6">Route</text>
	<text transform="matrix(1 0 0 1 135 197.9959)" class="st5 st6">Handler</text>
	<text transform="matrix(1 0 0 1 135 218.6959)" class="st7 st6">routes/rentals.js</text>
	<text transform="matrix(1 0 0 1 135 346.8959)" class="st5 st6">Template</text>
	<text transform="matrix(1 0 0 1 135 367.4959)" class="st7 st6">templates/</text>
	<text transform="matrix(1 0 0 1 135 388.1959)" class="st7 st6">    rentals.hbs</text>
	<text transform="matrix(1 0 0 1 13.5 84.3959)" class="st8 st5 st6">Maps:</text>
	<text transform="matrix(1 0 0 1 13.5 104.9959)" class="st8 st7 st6">-URL to</text>
	<text transform="matrix(1 0 0 1 13.5 125.6959)" class="st8 st7 st6">a route</text>
	<text transform="matrix(1 0 0 1 13.5 166.9959)" class="st8 st5 st6">Loads:</text>
	<text transform="matrix(1 0 0 1 13.5 187.5959)" class="st8 st7 st6">-a template</text>
	<text transform="matrix(1 0 0 1 13.5 208.1959)" class="st8 st7 st6">-a model</text>
	<text transform="matrix(1 0 0 1 13.5 270.1959)" class="st8 st5 st6">Persists to:</text>
	<text transform="matrix(1 0 0 1 13.5 290.7959)" class="st8 st7 st6">-web server</text>
	<text transform="matrix(1 0 0 1 13.5 332.0959)" class="st8 st5 st6">Loads:</text>
	<text transform="matrix(1 0 0 1 13.5 352.6959)" class="st8 st7 st6">-components</text>
	<text transform="matrix(1 0 0 1 13.5 373.3959)" class="st8 st5 st6">Accesses:</text>
	<text transform="matrix(1 0 0 1 13.5 393.9959)" class="st8 st7 st6">-model data</text>
	<text transform="matrix(1 0 0 1 135 474.8959)" class="st5 st6">Component</text>
	<text transform="matrix(1 0 0 1 135 488.0959)" class="st7 st9">components/rental-tile.js</text>
	<text transform="matrix(1 0 0 1 135 501.2959)" class="st7 st9">components/rental-tile.hbs</text>
	<text transform="matrix(1 0 0 1 301.0425 295.3959)" class="st5 st6">Model</text>
	<text transform="matrix(1 0 0 1 296.5 474.8959)" class="st5 st6">Component</text>
	<text transform="matrix(1 0 0 1 296.5 488.0959)" class="st7 st9">components/rental-tile.js</text>
	<text transform="matrix(1 0 0 1 296.5 501.2959)" class="st7 st9">components/rental-tile.hbs</text>
	<text transform="matrix(1 0 0 1 459 474.8959)" class="st5 st6">Component</text>
	<text transform="matrix(1 0 0 1 459 488.0959)" class="st7 st9">components/rental-tile.js</text>
	<text transform="matrix(1 0 0 1 459 501.2959)" class="st7 st9">components/rental-tile.hbs</text>
</g>
<g id="Code">
	<text transform="matrix(1 0 0 1 295.5 35.8959)" class="st10 st11">http://localhost:4200/rentals</text>
	<text transform="matrix(1 0 0 1 295.5 86.8959)" class="st10 st11">     </text>
	<text transform="matrix(1 0 0 1 328.4883 86.8959)" class="st10 st11">     </text>
	<text transform="matrix(1 0 0 1 295.5 86.8959)" class="st10 st11">Router.</text>
	<text transform="matrix(1 0 0 1 341.6836 86.8959)" class="st12 st10 st11">map</text>
	<text transform="matrix(1 0 0 1 361.4766 86.8959)" class="st10 st11">(</text>
	<text transform="matrix(1 0 0 1 368.0742 86.8959)" class="st13 st10 st11">function</text>
	<text transform="matrix(1 0 0 1 420.8555 86.8959)" class="st10 st11">() {     </text>
	<text transform="matrix(1 0 0 1 480.2344 86.8959)" class="st10 st11">     </text>
	<text transform="matrix(1 0 0 1 309.5 101.2959)" class="st14 st10 st11">this</text>
	<text transform="matrix(1 0 0 1 335.8906 101.2959)" class="st10 st11">.</text>
	<text transform="matrix(1 0 0 1 342.4883 101.2959)" class="st12 st10 st11">route</text>
	<text transform="matrix(1 0 0 1 375.4766 101.2959)" class="st10 st11">(</text>
	<text transform="matrix(1 0 0 1 382.0742 101.2959)" class="st15 st10 st11">&apos;rentals&apos;</text>
	<text transform="matrix(1 0 0 1 441.4531 101.2959)" class="st10 st11">);     </text>
	<text transform="matrix(1 0 0 1 487.6367 101.2959)" class="st10 st11">     </text>
	<text transform="matrix(1 0 0 1 295.5 115.6959)" class="st10 st11">});</text>
	<text transform="matrix(1 0 0 1 315.293 115.6959)" class="st10 st11">   </text>
	<text transform="matrix(1 0 0 1 295.5 170.3959)" class="st10 st11">     </text>
	<text transform="matrix(1 0 0 1 328.4883 170.3959)" class="st10 st11">     </text>
	<text transform="matrix(1 0 0 1 295.5 170.3959)" class="st14 st10 st11">export </text>
	<text transform="matrix(1 0 0 1 341.6836 170.3959)" class="st13 st10 st11">default </text>
	<text transform="matrix(1 0 0 1 394.4648 170.3959)" class="st10 st11">Route.</text>
	<text transform="matrix(1 0 0 1 434.0508 170.3959)" class="st12 st10 st11">extend</text>
	<text transform="matrix(1 0 0 1 473.6367 170.3959)" class="st10 st11">({     </text>
	<text transform="matrix(1 0 0 1 519.8203 170.3959)" class="st10 st11">     </text>
	<text transform="matrix(1 0 0 1 309.5 184.7959)" class="st12 st10 st11">model</text>
	<text transform="matrix(1 0 0 1 342.4883 184.7959)" class="st10 st11">() {     </text>
	<text transform="matrix(1 0 0 1 401.8672 184.7959)" class="st10 st11">     </text>
	<text transform="matrix(1 0 0 1 323.5 199.1959)" class="st13 st10 st11">return </text>
	<text transform="matrix(1 0 0 1 369.6836 199.1959)" class="st14 st10 st11">this</text>
	<text transform="matrix(1 0 0 1 396.0742 199.1959)" class="st10 st11">.store.</text>
	<text transform="matrix(1 0 0 1 442.2578 199.1959)" class="st12 st10 st11">f indAll</text>
	<text transform="matrix(1 0 0 1 488.4414 199.1959)" class="st10 st11">(</text>
	<text transform="matrix(1 0 0 1 495.0391 199.1959)" class="st15 st10 st11">&apos;rental&apos;</text>
	<text transform="matrix(1 0 0 1 547.8203 199.1959)" class="st10 st11">);     </text>
	<text transform="matrix(1 0 0 1 594.0039 199.1959)" class="st10 st11">     </text>
	<text transform="matrix(1 0 0 1 309.5 213.5959)" class="st10 st11">}</text>
	<text transform="matrix(1 0 0 1 316.0977 213.5959)" class="st10 st11">     </text>
	<text transform="matrix(1 0 0 1 349.0859 213.5959)" class="st10 st11">     </text>
	<text transform="matrix(1 0 0 1 295.5 227.9959)" class="st10 st11">});</text>
	<text transform="matrix(1 0 0 1 315.293 227.9959)" class="st10 st11">   </text>
	<text transform="matrix(1 0 0 1 295.5 339.8959)" class="st10 st11">     </text>
	<text transform="matrix(1 0 0 1 328.4883 339.8959)" class="st10 st11">     </text>
	<text transform="matrix(1 0 0 1 295.5 339.8959)" class="st12 st10 st11">&lt;</text>
	<text transform="matrix(1 0 0 1 302.0977 339.8959)" class="st15 st10 st11">ul</text>
	<text transform="matrix(1 0 0 1 315.293 339.8959)" class="st12 st10 st11">&gt;</text>
	<text transform="matrix(1 0 0 1 321.8906 339.8959)" class="st10 st11">     </text>
	<text transform="matrix(1 0 0 1 354.8789 339.8959)" class="st10 st11">     </text>
	<text transform="matrix(1 0 0 1 309.5 354.2959)" class="st10 st11">{{</text>
	<text transform="matrix(1 0 0 1 322.6953 354.2959)" class="st13 st10 st11">#each </text>
	<text transform="matrix(1 0 0 1 362.2812 354.2959)" class="st14 st10 st11">this.model</text>
	<text transform="matrix(1 0 0 1 428.2578 354.2959)" class="st13 st10 st11"> as </text>
	<text transform="matrix(1 0 0 1 454.6484 354.2959)" class="st10 st11">|</text>
	<text transform="matrix(1 0 0 1 461.2461 354.2959)" class="st14 st10 st11">rentalUnit</text>
	<text transform="matrix(1 0 0 1 527.2227 354.2959)" class="st10 st11">|}}     </text>
	<text transform="matrix(1 0 0 1 580.0039 354.2959)" class="st10 st11">     </text>
	<text transform="matrix(1 0 0 1 323.5 368.6959)" class="st12 st10 st11">&lt;</text>
	<text transform="matrix(1 0 0 1 330.0977 368.6959)" class="st15 st10 st11">RentalTile</text>
	<text transform="matrix(1 0 0 1 396.0742 368.6959)" class="st10 st11"> </text>
	<text transform="matrix(1 0 0 1 402.6719 368.6959)" class="st13 st10 st11">@rental</text>
	<text transform="matrix(1 0 0 1 448.8555 368.6959)" class="st10 st11">=</text>
	<text transform="matrix(1 0 0 1 455.4531 368.6959)" class="st14 st10 st11">rentalUnit</text>
	<text transform="matrix(1 0 0 1 521.4297 368.6959)" class="st10 st11"> /</text>
	<text transform="matrix(1 0 0 1 534.625 368.6959)" class="st12 st10 st11">&gt;</text>
	<text transform="matrix(1 0 0 1 541.2227 368.6959)" class="st10 st11">     </text>
	<text transform="matrix(1 0 0 1 574.2109 368.6959)" class="st10 st11">     </text>
	<text transform="matrix(1 0 0 1 309.5 383.0959)" class="st10 st11">{{</text>
	<text transform="matrix(1 0 0 1 322.6953 383.0959)" class="st13 st10 st11">/each</text>
	<text transform="matrix(1 0 0 1 355.6836 383.0959)" class="st10 st11">}}     </text>
	<text transform="matrix(1 0 0 1 401.8672 383.0959)" class="st10 st11">     </text>
	<text transform="matrix(1 0 0 1 295.5 397.4959)" class="st12 st10 st11">&lt;</text>
	<text transform="matrix(1 0 0 1 302.0977 397.4959)" class="st10 st11">/</text>
	<text transform="matrix(1 0 0 1 308.6953 397.4959)" class="st15 st10 st11">ul</text>
	<text transform="matrix(1 0 0 1 321.8906 397.4959)" class="st12 st10 st11">&gt;</text>
	<text transform="matrix(1 0 0 1 328.4883 397.4959)" class="st10 st11">   </text>
</g>
</svg>
