<?xml version="1.0" encoding="utf-8"?>
<!-- Generator: Adobe Illustrator 21.1.0, SVG Export Plug-In . SVG Version: 6.00 Build 0)  -->
<svg version="1.1" xmlns="http://www.w3.org/2000/svg" xmlns:xlink="http://www.w3.org/1999/xlink" x="0px" y="0px"
	 viewBox="0 0 622 540.9" style="enable-background:new 0 0 622 540.9;" xml:space="preserve">
<style type="text/css">
	.st0{fill:#F1705D;}
	.st1{fill:#F8F6F1;}
	.st2{fill:#FFFFFF;stroke:#000000;stroke-width:0.5;stroke-miterlimit:10;}
	.st3{fill:none;stroke:#000000;stroke-width:0.5;stroke-miterlimit:10;}
	.st4{fill:none;stroke:#000000;stroke-miterlimit:10;}
	.font-sans-serif-bold{font-family:-apple-system,BlinkMacSystemFont,Roboto,"Helvetica Neue",Arial,sans-serif,"Apple Color Emoji","Segoe UI Emoji","Segoe UI Symbol";font-weight:bold;}
	.text-17pt{font-size:17px;}
	.font-sans-serif-italic{font-family:-apple-system,BlinkMacSystemFont,Roboto,"Helvetica Neue",Arial,sans-serif,"Apple Color Emoji","Segoe UI Emoji","Segoe UI Symbol";font-style:italic;}
	.fill-white{fill:#FFFFFF;}
	.text-11pt{font-size:11px;}
	.font-monospace{font-family:Consolas,Monaco,'Andale Mono','Ubuntu Mono',monospace;}
	.text-12{font-size:12px;}
	.fill-dark-blue{fill:#3B6AA9;}
	.fill-maize{fill:#C09A3F;}
	.fill-dark-red{fill:#9B5436;}
	.fill-light-blue{fill:#3095C3;}
</style>
<g id="Background">
	<rect class="st0" width="116.5" height="540.9"/>
	<rect x="116.5" class="st1" width="505.5" height="540.9"/>
</g>
<g id="Components">
	<rect x="278.9" y="19.9" class="st2" width="309.1" height="24.5"/>
	<rect x="124" y="19.9" class="st3" width="464" height="24.5"/>
	<g>
		<g>
			<line class="st3" x1="162" y1="44.4" x2="162" y2="63.9"/>
			<g>
				<polygon points="166.6,63.3 157.4,63.3 162,67.9 				"/>
			</g>
		</g>
	</g>
	<rect x="278.9" y="68.9" class="st2" width="309.1" height="60.5"/>
	<rect x="124" y="68.9" class="st3" width="464" height="60.5"/>
	<g>
		<g>
			<line class="st3" x1="162" y1="129.4" x2="162" y2="148.9"/>
			<g>
				<polygon points="166.6,148.3 157.4,148.3 162,152.9 				"/>
			</g>
		</g>
	</g>
	<rect x="278.9" y="153.4" class="st2" width="309.1" height="84.5"/>
	<rect x="124" y="153.4" class="st3" width="464" height="84.5"/>
	<g>
		<g>
			<line class="st3" x1="162" y1="237.9" x2="162" y2="318.9"/>
			<g>
				<polygon points="166.6,318.3 157.4,318.3 162,322.9 				"/>
			</g>
		</g>
	</g>
	<rect x="278.9" y="322.9" class="st2" width="309.1" height="84.5"/>
	<rect x="124" y="322.9" class="st3" width="464" height="84.5"/>
	<g>
		<g>
			<line class="st3" x1="162" y1="407.4" x2="162" y2="446.9"/>
			<g>
				<polygon points="166.6,446.3 157.4,446.3 162,450.9 				"/>
			</g>
		</g>
	</g>
	<g>
		<g>
			<line class="st3" x1="257.2" y1="237.9" x2="279.4" y2="259.2"/>
			<g>
				<polygon points="282.1,255.5 275.8,262.1 282.3,262 				"/>
			</g>
		</g>
	</g>
	<g>
		<g>
			<line class="st3" x1="252.4" y1="407.4" x2="292.7" y2="448.1"/>
			<g>
				<polygon points="295.5,444.4 289.1,450.8 295.5,450.9 				"/>
			</g>
		</g>
	</g>
	<g>
		<g>
			<line class="st3" x1="269.7" y1="407.4" x2="480.3" y2="446"/>
			<g>
				<polygon points="480.6,441.4 478.9,450.4 484.2,446.7 				"/>
			</g>
		</g>
	</g>
	<rect x="124" y="450.9" class="st3" width="154.9" height="71.8"/>
	<rect x="448" y="450.9" class="st3" width="154.9" height="71.8"/>
	<rect x="285.5" y="450.9" class="st3" width="154.9" height="71.8"/>
	<path class="st4" d="M371.5,265.9v28.5c0,5.8-20.7,10.5-46.3,10.5s-46.3-4.7-46.3-10.5v-28.5"/>
	<ellipse class="st4" cx="325.2" cy="265.9" rx="46.3" ry="10.5"/>
</g>
<g id="Display_text">
	<text transform="matrix(1 0 0 1 135 37.8959)" class="font-sans-serif-bold text-17pt">URL</text>
	<text transform="matrix(1 0 0 1 135 92.8959)"><tspan x="0" y="0" class="font-sans-serif-bold text-17pt">Router</tspan><tspan x="0" y="20.6" class="font-sans-serif-italic text-17pt">router.js</tspan></text>
	<text transform="matrix(1 0 0 1 135 177.3959)"><tspan x="0" y="0" class="font-sans-serif-bold text-17pt">Route</tspan><tspan x="0" y="20.6" class="font-sans-serif-bold text-17pt">Handler</tspan><tspan x="0" y="41.3" class="font-sans-serif-italic text-17pt">routes/rentals.js</tspan></text>
	<text transform="matrix(1 0 0 1 135 346.8959)"><tspan x="0" y="0" class="font-sans-serif-bold text-17pt">Template</tspan><tspan x="0" y="20.6" class="font-sans-serif-italic text-17pt">templates/</tspan><tspan x="0" y="41.3" class="font-sans-serif-italic text-17pt">    rentals.hbs</tspan></text>
	<text transform="matrix(1 0 0 1 13.5 84.3959)"><tspan x="0" y="0" class="fill-white font-sans-serif-bold text-17pt">Maps:</tspan><tspan x="0" y="20.6" class="fill-white font-sans-serif-italic text-17pt">-URL to</tspan><tspan x="0" y="41.3" class="fill-white font-sans-serif-italic text-17pt">a route</tspan><tspan x="0" y="82.6" class="fill-white font-sans-serif-bold text-17pt">Loads:</tspan><tspan x="0" y="103.2" class="fill-white font-sans-serif-italic text-17pt">-a template</tspan><tspan x="0" y="123.8" class="fill-white font-sans-serif-italic text-17pt">-a model</tspan><tspan x="0" y="185.8" class="fill-white font-sans-serif-bold text-17pt">Persists to:</tspan><tspan x="0" y="206.4" class="fill-white font-sans-serif-italic text-17pt">-web server</tspan><tspan x="0" y="247.7" class="fill-white font-sans-serif-bold text-17pt">Loads:</tspan><tspan x="0" y="268.3" class="fill-white font-sans-serif-italic text-17pt">-components</tspan><tspan x="0" y="289" class="fill-white font-sans-serif-bold text-17pt">Accesses:</tspan><tspan x="0" y="309.6" class="fill-white font-sans-serif-italic text-17pt">-model data</tspan></text>
	<text transform="matrix(1 0 0 1 135 474.8959)"><tspan x="0" y="0" class="font-sans-serif-bold text-17pt">Component</tspan><tspan x="0" y="13.2" class="font-sans-serif-italic text-11pt">components/rental-tile.js</tspan><tspan x="0" y="26.4" class="font-sans-serif-italic text-11pt">components/rental-tile.hbs</tspan></text>
	<text transform="matrix(1 0 0 1 301.0425 295.3959)" class="font-sans-serif-bold text-17pt">Model</text>
	<text transform="matrix(1 0 0 1 296.5 474.8959)"><tspan x="0" y="0" class="font-sans-serif-bold text-17pt">Component</tspan><tspan x="0" y="13.2" class="font-sans-serif-italic text-11pt">components/rental-tile.js</tspan><tspan x="0" y="26.4" class="font-sans-serif-italic text-11pt">components/rental-tile.hbs</tspan></text>
	<text transform="matrix(1 0 0 1 459 474.8959)"><tspan x="0" y="0" class="font-sans-serif-bold text-17pt">Component</tspan><tspan x="0" y="13.2" class="font-sans-serif-italic text-11pt">components/rental-tile.js</tspan><tspan x="0" y="26.4" class="font-sans-serif-italic text-11pt">components/rental-tile.hbs</tspan></text>
</g>
<g id="Code">
	<text transform="matrix(1 0 0 1 295.5 35.8959)" class="font-monospace text-12">http://localhost:4200/rentals</text>
	<text transform="matrix(1 0 0 1 295.5 86.8959)" class="font-monospace text-12">
    <!-- line 1 -->
    <tspan x="0" y="y">Router.</tspan><tspan class="fill-dark-blue">map</tspan>(<tspan class="fill-maize">function</tspan>() {
    <!-- line 2 -->
    <tspan x="14" y="14.4" class="fill-dark-red">this</tspan>.<tspan class="fill-dark-blue">route</tspan>(<tspan class="fill-light-blue">&apos;rentals&apos;</tspan>);
    <!-- line 3 -->
    <tspan x="0" y="28.8">});</tspan>
  </text>
	<text transform="matrix(1 0 0 1 295.5 170.3959)" class="font-monospace text-12">
    <!-- line 1 -->
    <tspan class="fill-dark-red" x="0" y="0">export </tspan><tspan class="fill-maize">default </tspan>Route.<tspan class="fill-dark-blue">extend</tspan>({
    <!-- line 2 -->
    <tspan x="14" y="14.4" class="fill-dark-blue">model</tspan>() {
    <!-- line 3 -->
    <tspan x="28" y="28.8" class="fill-maize">return </tspan><tspan class="fill-dark-red">this</tspan>.store.<tspan class="fill-dark-blue">findAll</tspan>(<tspan class="fill-light-blue">&apos;rental&apos;</tspan>);
    <!-- line 4 -->
    <tspan x="14" y="43.2">}</tspan>
    <!-- line 5 -->
    <tspan x="0" y="57.6">});</tspan>
  </text>
	<text transform="matrix(1 0 0 1 295.5 339.8959)" class="font-monospace text-12">
    <!-- line 1 -->
    <tspan class="fill-dark-blue" x="0" y="0">&lt;</tspan><tspan class="fill-light-blue">ul</tspan><tspan class="fill-dark-blue">&gt;</tspan>
    <!-- line 2 -->
    <tspan x="14" y="14.4">{{</tspan><tspan class="fill-maize">#each </tspan><tspan class="fill-dark-red">this.model</tspan><tspan class="fill-maize"> as </tspan>|<tspan class="fill-dark-red">rentalUnit</tspan>|}}
    <!-- line 3 -->
    <tspan x="28" y="28.8" class="fill-dark-blue">&lt;</tspan><tspan class="fill-light-blue">RentalTile</tspan> <tspan class="fill-maize">@rental</tspan>=<tspan class="fill-dark-red">rentalUnit</tspan> /<tspan class="fill-dark-blue">&gt;</tspan>
    <!-- line 4 -->
    <tspan x="14" y="43.2">{{</tspan><tspan class="fill-maize">/each</tspan>}}
    <!-- line 5 -->
    <tspan x="0" y="57.6" class="fill-dark-blue">&lt;</tspan>/<tspan class="fill-light-blue">ul</tspan><tspan class="fill-dark-blue">&gt;</tspan>
  </text>
</g>
</svg>
