<?xml version="1.0" encoding="utf-8"?>
<!-- Generator: Adobe Illustrator 21.1.0, SVG Export Plug-In . SVG Version: 6.00 Build 0)  -->
<svg version="1.1" xmlns="http://www.w3.org/2000/svg" xmlns:xlink="http://www.w3.org/1999/xlink" x="0px" y="0px"
	 viewBox="0 0 622 540.9" style="enable-background:new 0 0 622 540.9;" xml:space="preserve">
<style type="text/css">
	.st0{fill:#F1705D;}
	.st1{fill:#F8F6F1;}
	.st2{fill:#FFFFFF;stroke:#000000;stroke-width:0.5;stroke-miterlimit:10;}
	.st3{fill:none;stroke:#000000;stroke-width:0.5;stroke-miterlimit:10;}
	.st4{fill:none;stroke:#000000;stroke-miterlimit:10;}
	.st5{font-family:'Roboto-Bold';}
	.st6{font-size:17.1999px;}
	.st7{font-family:'Roboto-Italic';}
	.st8{fill:#FFFFFF;}
	.st9{font-size:11px;}
	.st10{font-family:'SourceCodePro-Medium';}
	.st11{font-size:12px;}
	.st12{fill:#3B6AA9;}
	.st13{fill:#C09A3F;}
	.st14{fill:#9B5436;}
	.st15{fill:#3095C3;}
</style>
<g id="Background">
	<rect class="st0" width="116.5" height="540.9"/>
	<rect x="116.5" class="st1" width="505.5" height="540.9"/>
</g>
<g id="Components">
	<rect x="278.9" y="19.9" class="st2" width="309.1" height="24.5"/>
	<rect x="124" y="19.9" class="st3" width="464" height="24.5"/>
	<g>
		<g>
			<line class="st3" x1="162" y1="44.4" x2="162" y2="63.9"/>
			<g>
				<polygon points="166.6,63.3 157.4,63.3 162,67.9 				"/>
			</g>
		</g>
	</g>
	<rect x="278.9" y="68.9" class="st2" width="309.1" height="60.5"/>
	<rect x="124" y="68.9" class="st3" width="464" height="60.5"/>
	<g>
		<g>
			<line class="st3" x1="162" y1="129.4" x2="162" y2="148.9"/>
			<g>
				<polygon points="166.6,148.3 157.4,148.3 162,152.9 				"/>
			</g>
		</g>
	</g>
	<rect x="278.9" y="153.4" class="st2" width="309.1" height="84.5"/>
	<rect x="124" y="153.4" class="st3" width="464" height="84.5"/>
	<g>
		<g>
			<line class="st3" x1="162" y1="237.9" x2="162" y2="318.9"/>
			<g>
				<polygon points="166.6,318.3 157.4,318.3 162,322.9 				"/>
			</g>
		</g>
	</g>
	<rect x="278.9" y="322.9" class="st2" width="309.1" height="84.5"/>
	<rect x="124" y="322.9" class="st3" width="464" height="84.5"/>
	<g>
		<g>
			<line class="st3" x1="162" y1="407.4" x2="162" y2="446.9"/>
			<g>
				<polygon points="166.6,446.3 157.4,446.3 162,450.9 				"/>
			</g>
		</g>
	</g>
	<g>
		<g>
			<line class="st3" x1="257.2" y1="237.9" x2="279.4" y2="259.2"/>
			<g>
				<polygon points="282.1,255.5 275.8,262.1 282.3,262 				"/>
			</g>
		</g>
	</g>
	<g>
		<g>
			<line class="st3" x1="252.4" y1="407.4" x2="292.7" y2="448.1"/>
			<g>
				<polygon points="295.5,444.4 289.1,450.8 295.5,450.9 				"/>
			</g>
		</g>
	</g>
	<g>
		<g>
			<line class="st3" x1="269.7" y1="407.4" x2="480.3" y2="446"/>
			<g>
				<polygon points="480.6,441.4 478.9,450.4 484.2,446.7 				"/>
			</g>
		</g>
	</g>
	<rect x="124" y="450.9" class="st3" width="154.9" height="71.8"/>
	<rect x="448" y="450.9" class="st3" width="154.9" height="71.8"/>
	<rect x="285.5" y="450.9" class="st3" width="154.9" height="71.8"/>
	<path class="st4" d="M371.5,265.9v28.5c0,5.8-20.7,10.5-46.3,10.5s-46.3-4.7-46.3-10.5v-28.5"/>
	<ellipse class="st4" cx="325.2" cy="265.9" rx="46.3" ry="10.5"/>
</g>
<g id="Display_text">
	<text transform="matrix(1 0 0 1 135 37.8959)" class="st5 st6">URL</text>
	<text transform="matrix(1 0 0 1 135 92.8959)"><tspan x="0" y="0" class="st5 st6">Router</tspan><tspan x="0" y="20.6" class="st7 st6">router.js</tspan></text>
	<text transform="matrix(1 0 0 1 135 177.3959)"><tspan x="0" y="0" class="st5 st6">Route</tspan><tspan x="0" y="20.6" class="st5 st6">Handler</tspan><tspan x="0" y="41.3" class="st7 st6">routes/rentals.js</tspan></text>
	<text transform="matrix(1 0 0 1 135 346.8959)"><tspan x="0" y="0" class="st5 st6">Template</tspan><tspan x="0" y="20.6" class="st7 st6">templates/</tspan><tspan x="0" y="41.3" class="st7 st6">    rentals.hbs</tspan></text>
	<text transform="matrix(1 0 0 1 13.5 84.3959)"><tspan x="0" y="0" class="st8 st5 st6">Maps:</tspan><tspan x="0" y="20.6" class="st8 st7 st6">-URL to</tspan><tspan x="0" y="41.3" class="st8 st7 st6">a route</tspan><tspan x="0" y="82.6" class="st8 st5 st6">Loads:</tspan><tspan x="0" y="103.2" class="st8 st7 st6">-a template</tspan><tspan x="0" y="123.8" class="st8 st7 st6">-a model</tspan><tspan x="0" y="185.8" class="st8 st5 st6">Persists to:</tspan><tspan x="0" y="206.4" class="st8 st7 st6">-web server</tspan><tspan x="0" y="247.7" class="st8 st5 st6">Loads:</tspan><tspan x="0" y="268.3" class="st8 st7 st6">-components</tspan><tspan x="0" y="289" class="st8 st5 st6">Accesses:</tspan><tspan x="0" y="309.6" class="st8 st7 st6">-model data</tspan></text>
	<text transform="matrix(1 0 0 1 135 474.8959)"><tspan x="0" y="0" class="st5 st6">Component</tspan><tspan x="0" y="13.2" class="st7 st9">components/rental-tile.js</tspan><tspan x="0" y="26.4" class="st7 st9">templates/components/</tspan><tspan x="0" y="39.6" class="st7 st9">    rental-tile.hbs</tspan></text>
	<text transform="matrix(1 0 0 1 301.0425 295.3959)" class="st5 st6">Model</text>
	<text transform="matrix(1 0 0 1 296.5 474.8959)"><tspan x="0" y="0" class="st5 st6">Component</tspan><tspan x="0" y="13.2" class="st7 st9">components/rental-tile.js</tspan><tspan x="0" y="26.4" class="st7 st9">templates/components/</tspan><tspan x="0" y="39.6" class="st7 st9">    rental-tile.hbs</tspan></text>
	<text transform="matrix(1 0 0 1 459 474.8959)"><tspan x="0" y="0" class="st5 st6">Component</tspan><tspan x="0" y="13.2" class="st7 st9">components/rental-tile.js</tspan><tspan x="0" y="26.4" class="st7 st9">templates/components/</tspan><tspan x="0" y="39.6" class="st7 st9">    rental-tile.hbs</tspan></text>
</g>
<g id="Code">
	<text transform="matrix(1 0 0 1 295.5 35.8959)" class="st10 st11">http://localhost:4200/rentals</text>
	<text transform="matrix(1 0 0 1 295.5 86.8959)"><tspan x="0" y="0" class="st10 st11">Router.</tspan><tspan x="50.4" y="0" class="st12 st10 st11">map</tspan><tspan x="72" y="0" class="st10 st11">(</tspan><tspan x="79.2" y="0" class="st13 st10 st11">function</tspan><tspan x="136.8" y="0" class="st10 st11">() {</tspan><tspan x="0" y="14.4" class="st10 st11">  </tspan><tspan x="14.4" y="14.4" class="st14 st10 st11">this</tspan><tspan x="43.2" y="14.4" class="st10 st11">.</tspan><tspan x="50.4" y="14.4" class="st12 st10 st11">route</tspan><tspan x="86.4" y="14.4" class="st10 st11">(</tspan><tspan x="93.6" y="14.4" class="st15 st10 st11">&apos;rentals&apos;</tspan><tspan x="158.4" y="14.4" class="st10 st11">);</tspan><tspan x="0" y="28.8" class="st10 st11">});</tspan></text>
	<text transform="matrix(1 0 0 1 295.5 170.3959)"><tspan x="0" y="0" class="st14 st10 st11">export </tspan><tspan x="50.4" y="0" class="st13 st10 st11">default </tspan><tspan x="108" y="0" class="st10 st11">Route.</tspan><tspan x="151.2" y="0" class="st12 st10 st11">extend</tspan><tspan x="194.4" y="0" class="st10 st11">({</tspan><tspan x="0" y="14.4" class="st10 st11">  </tspan><tspan x="14.4" y="14.4" class="st12 st10 st11">model</tspan><tspan x="50.4" y="14.4" class="st10 st11">() {</tspan><tspan x="0" y="28.8" class="st10 st11">    </tspan><tspan x="28.8" y="28.8" class="st13 st10 st11">return </tspan><tspan x="79.2" y="28.8" class="st14 st10 st11">this</tspan><tspan x="108" y="28.8" class="st10 st11">.store.</tspan><tspan x="158.4" y="28.8" class="st12 st10 st11">f indAll</tspan><tspan x="209.3" y="28.8" class="st10 st11">(</tspan><tspan x="216.5" y="28.8" class="st15 st10 st11">&apos;rental&apos;</tspan><tspan x="274.1" y="28.8" class="st10 st11">);</tspan><tspan x="0" y="43.2" class="st10 st11">  }</tspan><tspan x="0" y="57.6" class="st10 st11">});</tspan></text>
	<text transform="matrix(1 0 0 1 295.5 339.8959)"><tspan x="0" y="0" class="st12 st10 st11">&lt;</tspan><tspan x="7.2" y="0" class="st15 st10 st11">ul</tspan><tspan x="21.6" y="0" class="st12 st10 st11">&gt;</tspan><tspan x="0" y="14.4" class="st10 st11">  {{</tspan><tspan x="28.8" y="14.4" class="st13 st10 st11">#each </tspan><tspan x="72" y="14.4" class="st14 st10 st11">this.model</tspan><tspan x="144" y="14.4" class="st13 st10 st11"> as</tspan><tspan x="165.6" y="14.4" class="st10 st11"> |</tspan><tspan x="180" y="14.4" class="st14 st10 st11">rental-unit</tspan><tspan x="259.2" y="14.4" class="st10 st11">|}}</tspan><tspan x="0" y="28.8" class="st10 st11">    </tspan><tspan x="28.8" y="28.8" class="st12 st10 st11">&lt;</tspan><tspan x="36" y="28.8" class="st15 st10 st11">RentalTile</tspan><tspan x="108" y="28.8" class="st10 st11"> </tspan><tspan x="115.2" y="28.8" class="st13 st10 st11">@rental</tspan><tspan x="165.6" y="28.8" class="st10 st11">=</tspan><tspan x="172.8" y="28.8" class="st14 st10 st11">rental-unit</tspan><tspan x="252" y="28.8" class="st10 st11"> /</tspan><tspan x="266.4" y="28.8" class="st12 st10 st11">&gt;</tspan><tspan x="0" y="43.2" class="st10 st11">  {{/</tspan><tspan x="36" y="43.2" class="st13 st10 st11">each</tspan><tspan x="64.8" y="43.2" class="st10 st11">}}</tspan><tspan x="0" y="57.6" class="st12 st10 st11">&lt;</tspan><tspan x="7.2" y="57.6" class="st10 st11">/</tspan><tspan x="14.4" y="57.6" class="st15 st10 st11">ul</tspan><tspan x="28.8" y="57.6" class="st12 st10 st11">&gt;</tspan></text>
</g>
</svg>
